<svg xmlns="http://www.w3.org/2000/svg" viewBox="0 0 400 300" width="406" height="306" class="illustration styles_illustrationTablet__1DWOa"><g id="_559_finance_app_flatline" data-name="#559_finance_app_flatline"><path d="M145.79,59.94h79.77a0,0,0,0,1,0,0v49.5a3.8,3.8,0,0,1-3.8,3.8H149.59a3.8,3.8,0,0,1-3.8-3.8V59.94A0,0,0,0,1,145.79,59.94Z" fill="#fff"></path><path d="M221.76,113.69H149.59a4.26,4.26,0,0,1-4.25-4.26V59.94a.46.46,0,0,1,.45-.46h79.77a.46.46,0,0,1,.46.46v49.49A4.26,4.26,0,0,1,221.76,113.69ZM146.25,60.4v49a3.35,3.35,0,0,0,3.34,3.35h72.17a3.35,3.35,0,0,0,3.35-3.35v-49Z" fill="#231f20"></path><path d="M149.59,52.86h72.17a3.8,3.8,0,0,1,3.8,3.8v3.28a0,0,0,0,1,0,0H145.79a0,0,0,0,1,0,0V56.66A3.8,3.8,0,0,1,149.59,52.86Z" fill="#fff"></path><path d="M225.56,60.4H145.79a.46.46,0,0,1-.45-.46V56.66a4.26,4.26,0,0,1,4.25-4.25h72.17A4.26,4.26,0,0,1,226,56.66v3.28A.46.46,0,0,1,225.56,60.4Zm-79.31-.92h78.86V56.66a3.35,3.35,0,0,0-3.35-3.34H149.59a3.35,3.35,0,0,0-3.34,3.34Z" fill="#231f20"></path><circle cx="165.43" cy="74.61" r="5.14" fill="#688afc"></circle><path d="M156.09,90.15a9.35,9.35,0,0,1,18.69,0Z" fill="#688afc"></path><circle cx="205.92" cy="74.61" r="5.14" fill="#688afc"></circle><path d="M196.58,90.15a9.35,9.35,0,0,1,18.69,0Z" fill="#688afc"></path><path d="M194.45,75.07h-12a.46.46,0,1,1,0-.92h10.94L191,71.64a.45.45,0,0,1,0-.64.47.47,0,0,1,.65,0l3.12,3.29a.44.44,0,0,1,.09.49A.46.46,0,0,1,194.45,75.07Z" fill="#231f20"></path><path d="M191.45,78a.47.47,0,0,1-.33-.14.46.46,0,0,1,0-.65l3-2.92a.46.46,0,0,1,.64.66l-3,2.92A.46.46,0,0,1,191.45,78Z" fill="#231f20"></path><path d="M188.76,78.92h-12a.45.45,0,0,1-.42-.27.46.46,0,0,1,.09-.5l3.12-3.28a.46.46,0,1,1,.67.63L177.82,78h10.94a.47.47,0,0,1,.46.46A.46.46,0,0,1,188.76,78.92Z" fill="#231f20"></path><path d="M179.75,81.84a.42.42,0,0,1-.31-.13l-3-2.91a.47.47,0,0,1,0-.65.46.46,0,0,1,.65,0l3,2.92a.45.45,0,0,1,0,.64A.47.47,0,0,1,179.75,81.84Z" fill="#231f20"></path><path d="M209.46,96.2H161.89a.5.5,0,0,1-.5-.5.51.51,0,0,1,.5-.5h47.57a.5.5,0,0,1,.5.5A.5.5,0,0,1,209.46,96.2Z" fill="#d1d3d4"></path><path d="M209.46,99.58H161.89a.5.5,0,0,1-.5-.5.51.51,0,0,1,.5-.5h47.57a.5.5,0,0,1,.5.5A.5.5,0,0,1,209.46,99.58Z" fill="#d1d3d4"></path><path d="M204.57,103H161.89a.5.5,0,0,1-.5-.5.51.51,0,0,1,.5-.5h42.68a.51.51,0,0,1,.5.5A.5.5,0,0,1,204.57,103Z" fill="#d1d3d4"></path><circle cx="151.4" cy="56.4" r="1.22" fill="#688afc"></circle><circle cx="155.7" cy="56.4" r="1.22" fill="#d1d3d4"></circle><circle cx="160" cy="56.4" r="1.22" fill="#d1d3d4"></circle><path d="M237.91,55.37H340.85a0,0,0,0,1,0,0V176.85a5,5,0,0,1-5,5H242.9a5,5,0,0,1-5-5V55.37A0,0,0,0,1,237.91,55.37Z" fill="#fff"></path><path d="M335.85,182.35h-93a5.5,5.5,0,0,1-5.49-5.5V55.37a.5.5,0,0,1,.5-.5H340.85a.5.5,0,0,1,.5.5V176.85A5.51,5.51,0,0,1,335.85,182.35ZM238.41,55.87v121a4.5,4.5,0,0,0,4.49,4.5h93a4.51,4.51,0,0,0,4.5-4.5v-121Z" fill="#231f20"></path><path d="M319.86,171.84h-61A4.9,4.9,0,0,1,254,167V164.1a4.9,4.9,0,0,1,4.89-4.89h61a4.89,4.89,0,0,1,4.89,4.89V167A4.89,4.89,0,0,1,319.86,171.84Zm-61-11.63A3.89,3.89,0,0,0,255,164.1V167a3.89,3.89,0,0,0,3.89,3.88h61a3.89,3.89,0,0,0,3.89-3.88V164.1a3.89,3.89,0,0,0-3.89-3.89Z" fill="#231f20"></path><rect x="252.63" y="88.66" width="8.16" height="58.81" fill="#688afc"></rect><rect x="267.69" y="102.43" width="8.16" height="45.03" fill="#688afc"></rect><rect x="282.74" y="93.46" width="8.16" height="54.01" fill="#688afc"></rect><rect x="297.8" y="109.73" width="8.16" height="37.73" fill="#688afc"></rect><rect x="312.86" y="93.46" width="8.16" height="54.01" fill="#688afc"></rect><path d="M320.83,66H307a.5.5,0,0,1-.5-.5.5.5,0,0,1,.5-.5h13.81a.51.51,0,0,1,.5.5A.5.5,0,0,1,320.83,66Z" fill="#231f20"></path><path d="M316,71.15h-9a.5.5,0,0,1-.5-.5.5.5,0,0,1,.5-.5h9a.5.5,0,0,1,.5.5A.5.5,0,0,1,316,71.15Z" fill="#231f20"></path><path d="M302.89,94.07c-4.36,0-8.16-4.86-11.22-8.78-2-2.54-3.87-5-5.12-5h0c-1.42,0-3.38,1.17-5.45,2.37-2.82,1.63-6,3.48-9,3.31-5.61-.3-16.15-12.68-16.59-13.21a.47.47,0,0,1,.05-.67.49.49,0,0,1,.68,0c.1.13,10.71,12.6,15.91,12.88,2.74.16,5.8-1.62,8.5-3.19,2.18-1.26,4.24-2.45,5.9-2.5s3.59,2.32,5.93,5.33c3,3.83,6.7,8.59,10.71,8.4,3.47-.17,5.13-3.19,6.89-6.39s3.43-6.26,6.94-6.93a.48.48,0,0,1,.17.94c-3.06.58-4.62,3.43-6.28,6.45-1.8,3.29-3.67,6.69-7.67,6.89Z" fill="#d1d3d4"></path><path d="M328,147.94H246a.47.47,0,0,1-.47-.48A.48.48,0,0,1,246,147h82a.48.48,0,0,1,.48.48A.47.47,0,0,1,328,147.94Z" fill="#d1d3d4"></path><path d="M256,74.29a1.84,1.84,0,1,1,1.84-1.84A1.84,1.84,0,0,1,256,74.29Zm0-2.72a.89.89,0,1,0,.89.88A.88.88,0,0,0,256,71.57Z" fill="#d1d3d4"></path><path d="M317,82.1a1.84,1.84,0,1,1,1.85-1.84A1.85,1.85,0,0,1,317,82.1Zm0-2.73a.89.89,0,1,0,.89.89A.89.89,0,0,0,317,79.37Z" fill="#d1d3d4"></path><path d="M242.9,45h92.95a5,5,0,0,1,5,5v5.35a0,0,0,0,1,0,0H237.91a0,0,0,0,1,0,0V50A5,5,0,0,1,242.9,45Z" fill="#fff"></path><path d="M340.85,55.87H237.91a.5.5,0,0,1-.5-.5V50a5.5,5.5,0,0,1,5.49-5.5h93a5.51,5.51,0,0,1,5.5,5.5v5.35A.5.5,0,0,1,340.85,55.87Zm-102.44-1H340.35V50a4.51,4.51,0,0,0-4.5-4.5h-93a4.5,4.5,0,0,0-4.49,4.5Z" fill="#231f20"></path><rect x="59.15" y="106.83" width="76.21" height="93.64" rx="3.67" fill="#fff"></rect><path d="M131.69,201H62.82a4.17,4.17,0,0,1-4.17-4.17V110.5a4.18,4.18,0,0,1,4.17-4.17h68.87a4.18,4.18,0,0,1,4.17,4.17v86.3A4.17,4.17,0,0,1,131.69,201ZM62.82,107.33a3.18,3.18,0,0,0-3.17,3.17v86.3A3.17,3.17,0,0,0,62.82,200h68.87a3.17,3.17,0,0,0,3.17-3.17V110.5a3.18,3.18,0,0,0-3.17-3.17Z" fill="#231f20"></path><path d="M116.15,180.69H75.08a.5.5,0,0,1-.5-.5.51.51,0,0,1,.5-.5h41.07a.5.5,0,0,1,.5.5A.5.5,0,0,1,116.15,180.69Z" fill="#d1d3d4"></path><path d="M96.32,187.4H75.08a.51.51,0,0,1-.5-.5.5.5,0,0,1,.5-.5H96.32a.5.5,0,0,1,.5.5A.51.51,0,0,1,96.32,187.4Z" fill="#d1d3d4"></path><path d="M77.62,127.91q9,9,17.93,17.94a.93.93,0,0,0,.72.3h27.47a26.49,26.49,0,1,1-46.35-18.45Z" fill="#688afc"></path><path d="M98.21,118.68v25.58l.26,0,24.76-.06c.55,0,.55,0,.51-.55a26.72,26.72,0,0,0-15.8-22.7,27.1,27.1,0,0,0-8.57-2.17Z" fill="#d1d3d4"></path><path d="M96.32,143.92V118.7a28.63,28.63,0,0,0-8.69,1.83,27.26,27.26,0,0,0-8.94,5.77Z" fill="#d1d3d4"></path><path d="M175.7,130.3c-5.89-1.77-9-8.66-10.57-14.14-1.76-6.23-3.83-11.33-1.32-17.82.57-1.49,1.49-3,3-3.48a3,3,0,0,0,1.07-.37,2.28,2.28,0,0,0,.57-.93c3.58-8.44,13.71-8.67,21.31-7.48,4.4.69,10.11,2.7,11.48,7.22,2.51,8.33.39,17.39-4.23,24.59C192.69,124.66,184.52,133,175.7,130.3Z" fill="#fff"></path><path d="M179.07,131.3a11.9,11.9,0,0,1-3.51-.52h0c-6.15-1.85-9.33-8.89-10.91-14.48-.2-.71-.4-1.41-.61-2.1-1.6-5.43-3-10.13-.7-16,.81-2.11,1.95-3.38,3.36-3.78l.3-.07a1,1,0,0,0,1-.87c3.73-8.76,14-9.1,21.88-7.85,3,.47,10.26,2.16,11.89,7.57,2.38,7.92.82,17-4.29,25C193.15,124.87,186.33,131.3,179.07,131.3Zm4.44-45.24c-6,0-12,1.7-14.57,7.69a2.53,2.53,0,0,1-.72,1.13,2.34,2.34,0,0,1-1,.4l-.25.07c-1.09.3-2,1.37-2.7,3.17-2.16,5.59-.82,10.14.73,15.4.21.69.41,1.39.62,2.11,1.51,5.34,4.51,12.08,10.23,13.8h0c8,2.39,16-4.74,20.77-12.21,4.95-7.72,6.47-16.53,4.17-24.18-1.47-4.86-8.24-6.42-11.08-6.86A40.3,40.3,0,0,0,183.51,86.06Z" fill="#231f20"></path><path d="M202.46,113.44s6.31,7.89,5.32,9.74-4.91,1-4.91,1" fill="#fff"></path><path d="M204.74,124.91a10,10,0,0,1-2-.2.5.5,0,0,1,.2-1c1,.2,3.71.46,4.37-.78.52-1-2.34-5.53-5.27-9.2a.51.51,0,0,1,.07-.71.52.52,0,0,1,.71.08c1.53,1.92,6.44,8.31,5.37,10.3C207.57,124.63,206,124.91,204.74,124.91Z" fill="#231f20"></path><path d="M200.26,102.44c3.8,2.56,3.33,8.76,3.66,12.73q.69,8.37,1,16.78c.13,3.55-9,4.46-10.73,3.55l2.7,13.85L177,143.71l-.85-16.19s6-.51,9-8,1.77-18.6,1.77-18.6S196.55,99.93,200.26,102.44Z" fill="#fff"></path><path d="M196.89,149.85l-.14,0-19.91-5.64a.5.5,0,0,1-.37-.45l-.85-16.2a.5.5,0,0,1,.45-.52c.24,0,5.79-.59,8.56-7.72,2.85-7.34,1.75-18.26,1.74-18.37a.56.56,0,0,1,.11-.37.5.5,0,0,1,.34-.18c.4,0,9.91-.93,13.72,1.64h0c3.37,2.28,3.58,7.08,3.75,11,0,.76.07,1.49.13,2.16.46,5.58.8,11.23,1,16.8a3,3,0,0,1-1.72,2.69c-2.33,1.46-6.73,1.95-8.87,1.59l2.55,13a.52.52,0,0,1-.15.47A.55.55,0,0,1,196.89,149.85Zm-19.44-6.52,18.79,5.32L193.7,135.6a.48.48,0,0,1,.19-.5.51.51,0,0,1,.53,0c1.11.59,6.25.28,8.75-1.28.86-.54,1.28-1.15,1.25-1.81-.2-5.56-.54-11.2-1-16.76-.06-.68-.09-1.42-.13-2.2-.16-3.64-.36-8.17-3.31-10.16h0c-3-2.06-10.57-1.66-12.57-1.52.19,2.29.77,11.6-1.85,18.33s-7.37,8-8.92,8.29Z" fill="#231f20"></path><path d="M204.41,127.8s-5.48,0-6.79-7.4" fill="#fff"></path><path d="M204.41,128.3c-.06,0-5.92-.09-7.29-7.81a.51.51,0,0,1,.41-.58.5.5,0,0,1,.58.4c1.21,6.88,6.1,7,6.3,7a.5.5,0,0,1,.5.5A.5.5,0,0,1,204.41,128.3Z" fill="#231f20"></path><path d="M192.08,118a7.64,7.64,0,0,0-1.91-3.68,11,11,0,0,0-2.26-2.35,3.67,3.67,0,0,0-3.09-.65,3.42,3.42,0,0,0-2,1.93,6.48,6.48,0,0,0-.45,2.83,12,12,0,0,0,6.49,10.13l-.33-.31" fill="#fff"></path><path d="M188.83,126.69a.46.46,0,0,1-.22-.06,12.59,12.59,0,0,1-6.77-10.55,6.91,6.91,0,0,1,.49-3,3.92,3.92,0,0,1,2.35-2.21,4.14,4.14,0,0,1,3.52.72,11.13,11.13,0,0,1,2.36,2.45,8,8,0,0,1,2,3.94.5.5,0,0,1-.44.55.5.5,0,0,1-.55-.44,7.31,7.31,0,0,0-1.81-3.44,10.6,10.6,0,0,0-2.14-2.24,3.18,3.18,0,0,0-2.66-.58,2.92,2.92,0,0,0-1.72,1.66,5.94,5.94,0,0,0-.41,2.61,11.6,11.6,0,0,0,5.58,9.34.46.46,0,0,1,.41.12l.34.3a.5.5,0,0,1-.34.88Z" fill="#231f20"></path><path d="M194.19,135.5s-4.89-1-7.39-4.1c0,0,.88,7.4,8.38,9.2Z" fill="#231f20"></path><path d="M195.18,141.1l-.12,0c-7.75-1.85-8.75-9.54-8.76-9.62a.5.5,0,0,1,.3-.52.49.49,0,0,1,.58.14c2.37,2.89,7.06,3.92,7.11,3.93a.5.5,0,0,1,.39.4l1,5.09a.5.5,0,0,1-.49.6Zm-7.5-8.12a10.34,10.34,0,0,0,6.86,6.92l-.78-4A16.46,16.46,0,0,1,187.68,133Z" fill="#231f20"></path><ellipse cx="198.93" cy="109.86" rx="2" ry="0.79" transform="translate(74.07 299.74) rotate(-85.58)" fill="#231f20"></ellipse><path d="M146.89,176.84l-10.26,18-26.72-27.42s2.16-11.65-.72-10.72a9.61,9.61,0,0,0-4.54,3.39s-2.37-16-8.61-10.74-3.37,14.5,1.36,23.38c3.51,6.59,34.7,54.66,43.35,52.73s29.19-45.59,29.19-45.59Z" fill="#fff"></path><path d="M140.27,226c-9.83,0-40.18-47.16-43.31-53-3.94-7.41-8.36-18-1.24-24,1.32-1.12,2.6-1.46,3.81-1,3.28,1.24,4.9,8.21,5.42,11a9.67,9.67,0,0,1,4.09-2.7,1.23,1.23,0,0,1,1.27.23c1.67,1.47.5,8.76.14,10.8L136.52,194l9.94-17.43a.5.5,0,0,1,.5-.25l23,3a.48.48,0,0,1,.37.26.51.51,0,0,1,0,.45c-.85,1.79-20.76,43.91-29.54,45.86A2.81,2.81,0,0,1,140.27,226ZM98.46,148.77a3.37,3.37,0,0,0-2.1,1c-5,4.24-4.53,11.48,1.49,22.77,3.81,7.16,34.76,54.25,42.79,52.48,7.76-1.73,26-39.38,28.56-44.7l-22-2.9-10.1,17.71a.51.51,0,0,1-.37.25.48.48,0,0,1-.42-.15l-26.72-27.42a.51.51,0,0,1-.13-.44c.68-3.69,1.21-9.26.23-10.12,0,0-.11-.09-.31,0a9.24,9.24,0,0,0-4.28,3.19.52.52,0,0,1-.53.21.5.5,0,0,1-.38-.41c-.41-2.77-2.09-10.18-5-11.26A2,2,0,0,0,98.46,148.77Z" fill="#231f20"></path><path d="M225.05,168.77s20.68-5.36,28.43-9.91c8.5-5,24.51-36.58,29.71-44.43a47.63,47.63,0,0,0,6.21-14.11c.6-2.24.88-3.86-.24-6-.23-.45-3.9-4.47-4.07-4,1-2.81,2-5.48,3.06-8.26.28-.77.49-1.74-.1-2.3a1.47,1.47,0,0,0-1.81,0A4.34,4.34,0,0,0,285,81.26L276.5,96a11.45,11.45,0,0,0-1.07-5.28,1.73,1.73,0,0,0-.63-.82c-.93-.52-1.83.75-2.12,1.77-1.51,5.32-.42,11.73-3.68,16.44-2.48,3.58-24.51,30-24.51,30l-19.44,5" fill="#fff"></path><path d="M225.05,169.27a.5.5,0,0,1-.13-1c.21-.05,20.71-5.38,28.31-9.85,6.15-3.62,16.6-21.93,23.52-34.05,2.5-4.37,4.65-8.15,6-10.22a47.31,47.31,0,0,0,6.13-14c.57-2.1.87-3.63-.2-5.68a27.69,27.69,0,0,0-3.56-3.7.55.55,0,0,1-.22,0,.51.51,0,0,1-.31-.64h0c.61-1.8,1.29-3.57,1.94-5.29.38-1,.75-2,1.12-3s.34-1.47,0-1.76a1,1,0,0,0-1.19,0,4,4,0,0,0-1.06,1.36l-8.53,14.77a.49.49,0,0,1-.57.23A.5.5,0,0,1,276,96,11.13,11.13,0,0,0,275,91a1.31,1.31,0,0,0-.43-.59.36.36,0,0,0-.36,0,2.43,2.43,0,0,0-1,1.49,35.78,35.78,0,0,0-1,6.2c-.33,3.6-.68,7.33-2.8,10.38-2.46,3.57-23.64,28.92-24.54,30a.48.48,0,0,1-.26.16l-19.44,5a.51.51,0,0,1-.61-.36.5.5,0,0,1,.36-.61l19.29-5c1.63-2,22-26.4,24.38-29.8,2-2.84,2.3-6.44,2.63-9.91a35.72,35.72,0,0,1,1-6.39,3.33,3.33,0,0,1,1.61-2.14,1.37,1.37,0,0,1,1.23.08,2,2,0,0,1,.84,1,11.93,11.93,0,0,1,1.05,3.74L284.59,81A4.81,4.81,0,0,1,286,79.32a2,2,0,0,1,2.44.06c.62.59.7,1.55.22,2.84-.37,1-.75,2-1.13,3-.59,1.56-1.2,3.17-1.77,4.8a24.41,24.41,0,0,1,3.88,4c1.23,2.36.89,4.14.28,6.4a48.33,48.33,0,0,1-6.27,14.25c-1.36,2.05-3.5,5.81-6,10.16-7.39,12.94-17.5,30.67-23.89,34.42-7.71,4.54-27.71,9.74-28.56,10Z" fill="#231f20"></path><path d="M230,255l-6.47-29.42L159,242.89s.13,4.83.31,12.09Z" fill="#231f20"></path><path d="M243,136s-73.42-1.55-82.74,11.63a185.82,185.82,0,0,0-18.12,34.83l13.2,12.34A482.86,482.86,0,0,0,158,247.05c22.75,4,69.88-14.2,69.48-14.38l-6-61,28.1-8.68Z" fill="#688afc"></path><path d="M154.48,190.22h0a.5.5,0,0,1-.48-.52c0-1.1.87-27.13,4.44-36.23a.49.49,0,0,1,.65-.28.48.48,0,0,1,.28.64c-3.5,8.94-4.36,35.64-4.37,35.9A.51.51,0,0,1,154.48,190.22Z" fill="#231f20"></path><path d="M211.43,174.79a.49.49,0,0,1-.48-.36.51.51,0,0,1,.35-.62l20.75-5.9a.5.5,0,0,1,.28,1l-20.76,5.9A.34.34,0,0,1,211.43,174.79Z" fill="#231f20"></path><path d="M292.55,244.84H256.26a3.82,3.82,0,0,1-3.83-3.83V200.92a3.83,3.83,0,0,1,3.83-3.83h32l8.08,7.88v36A3.83,3.83,0,0,1,292.55,244.84Z" fill="#fff"></path><path d="M292.55,245.34H256.26a4.33,4.33,0,0,1-4.33-4.33V200.92a4.34,4.34,0,0,1,4.33-4.33h32a.48.48,0,0,1,.35.14l8.09,7.89a.51.51,0,0,1,.15.35v36A4.34,4.34,0,0,1,292.55,245.34Zm-36.29-47.75a3.34,3.34,0,0,0-3.33,3.33V241a3.33,3.33,0,0,0,3.33,3.33h36.29a3.34,3.34,0,0,0,3.33-3.33V205.18l-7.79-7.59Z" fill="#231f20"></path><circle cx="244.15" cy="50.32" r="1.68" fill="#688afc"></circle><circle cx="249.98" cy="50.32" r="1.68" fill="#d1d3d4"></circle><circle cx="255.81" cy="50.32" r="1.68" fill="#d1d3d4"></circle><path d="M288,76.69a.47.47,0,0,1-.31-.12.48.48,0,0,1-.06-.67l4.32-5.12a.48.48,0,0,1,.37-.17h10.81a.48.48,0,0,1,0,1H292.52l-4.18,5A.48.48,0,0,1,288,76.69Z" fill="#d1d3d4"></path><polygon points="288.3 197.09 288.3 205.21 296.38 204.97 288.3 197.09" fill="#688afc"></polygon><path d="M288.29,205.71a.49.49,0,0,1-.34-.14.48.48,0,0,1-.16-.36v-8.12a.51.51,0,0,1,.31-.46.49.49,0,0,1,.54.1l8.09,7.89a.5.5,0,0,1-.34.85l-8.08.24Zm.5-7.43v6.42l6.39-.19Z" fill="#231f20"></path><rect x="100.4" y="218.21" width="15.73" height="15.73" rx="2.73" fill="#688afc"></rect><rect x="97.52" y="213.17" width="15.73" height="15.73" rx="2.56" fill="#fff"></rect><path d="M110.69,229.4H100.08A3.06,3.06,0,0,1,97,226.34V215.73a3.06,3.06,0,0,1,3.06-3.06h10.61a3.06,3.06,0,0,1,3.06,3.06v10.61A3.06,3.06,0,0,1,110.69,229.4Zm-10.61-15.73A2.06,2.06,0,0,0,98,215.73v10.61a2.06,2.06,0,0,0,2.06,2.06h10.61a2.06,2.06,0,0,0,2.06-2.06V215.73a2.06,2.06,0,0,0-2.06-2.06Z" fill="#231f20"></path><path d="M272.24,235.89v-2.36c-.86-.24-1.69-.41-2.5-.69A7.29,7.29,0,0,1,265.9,230a7.09,7.09,0,0,1-1.11-4h4.61a3.65,3.65,0,0,0,2.83,3.42v-6.26c-.93-.27-1.85-.52-2.77-.81a6.54,6.54,0,0,1-2.68-1.53,5.34,5.34,0,0,1-1.49-2.9,7.52,7.52,0,0,1,.29-4,6.69,6.69,0,0,1,4.05-4,22.73,22.73,0,0,1,2.33-.6l.28-.06V206h4.32v.31c0,.89,0,1.79,0,2.68,0,.22.07.29.28.34a9,9,0,0,1,4,1.88,6.44,6.44,0,0,1,2.29,4c.08.43.11.87.17,1.32h-4.69a3.31,3.31,0,0,0-2-3v5.85l.51.12a16.59,16.59,0,0,1,3.68,1.17,5.31,5.31,0,0,1,3.18,4.45,6.94,6.94,0,0,1-1.21,5.09,7.16,7.16,0,0,1-3.48,2.58c-.87.3-1.77.49-2.7.75v2.29ZM276.57,224v5.44a3.87,3.87,0,0,0,1.91-.85,2.37,2.37,0,0,0-.11-3.76A14.22,14.22,0,0,0,276.57,224Zm-4.34-5.57v-5.26a15.85,15.85,0,0,0-1.65.84,2.27,2.27,0,0,0,.14,3.79C271.19,218.05,271.7,218.22,272.23,218.44Z" fill="#688afc"></path><rect x="83.36" y="66.31" width="44.04" height="26.24" fill="#d1d3d4"></rect></g></svg>